<svg width="238" height="60" viewBox="0 0 238 60" fill="none" xmlns="http://www.w3.org/2000/svg">
    <path fill-rule="evenodd" clip-rule="evenodd" d="M23.9458 19.2935L33.8833 2.00071L43.8207 19.2935H45.7168L35.2592 1.09548C35.1701 0.940765 34.6846 0.168518 33.8587 0.168518C33.4852 0.168518 32.9477 0.329305 32.5074 1.09548L22.0498 19.2935H23.9458Z" fill="#50AD34"/>
    <path fill-rule="evenodd" clip-rule="evenodd" d="M33.645 39.9689C33.8453 40.2062 34.054 40.3498 34.2515 40.4307C33.9667 40.518 33.7145 40.5273 33.6296 40.5273H32.8109L23.0465 57.5184L13.2823 40.5273H12.4635C11.5934 40.5273 11.1859 40.1479 10.9965 39.825C11.035 39.9119 11.07 39.9771 11.0892 40.0103L21.6706 58.4239C22.1109 59.1899 22.6486 59.3509 23.0219 59.3509C23.8478 59.3509 24.3335 58.5783 24.4224 58.4239L35.004 40.0103C35.012 39.9965 35.0185 39.983 35.0263 39.9689H33.645Z" fill="#1F4471"/>
    <path fill-rule="evenodd" clip-rule="evenodd" d="M55.2021 39.9689C55.4025 40.2062 55.6113 40.3498 55.8086 40.4307C55.5239 40.518 55.2716 40.5272 55.1867 40.5272H54.368L44.6037 57.5184L34.8395 40.5272H34.0206C33.1505 40.5272 32.743 40.1479 32.5536 39.8249C32.5921 39.9119 32.6271 39.9771 32.6464 40.0103L43.2278 58.4239C43.6681 59.1899 44.2057 59.3509 44.5791 59.3509C45.4049 59.3509 45.8906 58.5783 45.9796 58.4239L56.5611 40.0103C56.5692 39.9965 56.7447 39.6732 56.7524 39.6594L55.2021 39.9689Z" fill="#E32215"/>
    <path fill-rule="evenodd" clip-rule="evenodd" d="M24.3161 19.546C23.9034 18.8262 22.9955 18.7898 22.8176 18.7898H1.6515C0.771351 18.7898 0.364356 19.1776 0.177775 19.5032C-0.234915 20.2231 0.188159 21.032 0.277263 21.1868L10.8586 39.6002C11.2574 40.2939 11.881 39.9182 12.2449 39.9492L12.0994 38.4597L1.74479 20.4413H22.1235V20.4315H24.4714C24.529 20.0479 24.4342 19.7522 24.3161 19.546Z" fill="#22B0E6"/>
    <path fill-rule="evenodd" clip-rule="evenodd" d="M43.3314 19.5487C43.7441 18.8288 44.652 18.7924 44.8299 18.7924H65.9962C66.8762 18.7924 67.2831 19.1802 67.4699 19.5058C67.8824 20.2257 67.4593 21.0347 67.3704 21.1894L56.7889 39.6028C56.3903 40.2965 56.3397 38.719 55.9757 38.75L55.5481 38.4623L65.9027 20.4439H45.524V20.4342H43.1761C43.1185 20.0506 43.2133 19.7548 43.3314 19.5487Z" fill="#F6A503"/>
    <mask id="mask0" mask-type="alpha" maskUnits="userSpaceOnUse" x="78" y="0" width="160" height="60">
        <path fill-rule="evenodd" clip-rule="evenodd" d="M137.522 1.63058C136.263 2.16216 135.18 2.91098 134.276 3.87704C133.372 4.84328 132.668 6.00907 132.165 7.3739C131.662 8.73923 131.411 10.2549 131.411 11.9214C131.411 13.5986 131.662 15.1196 132.165 16.4843C132.668 17.8493 133.372 19.0149 134.276 19.9813C135.18 20.9474 136.263 21.6938 137.522 22.2204C138.782 22.7469 140.169 23.0103 141.683 23.0103C143.218 23.0103 144.615 22.7469 145.875 22.2204C147.135 21.6938 148.217 20.9474 149.121 19.9813C150.026 19.0149 150.726 17.8493 151.225 16.4843C151.722 15.1196 151.971 13.5986 151.971 11.9214C151.971 10.2549 151.722 8.73923 151.225 7.3739C150.726 6.00907 150.026 4.84075 149.121 3.86946C148.217 2.89833 147.135 2.14918 145.875 1.62266C144.615 1.09614 143.218 0.832886 141.683 0.832886C140.169 0.832886 138.782 1.09867 137.522 1.63058ZM138.17 20.9858C137.108 20.5463 136.194 19.907 135.427 19.0685C134.66 18.2304 134.065 17.2102 133.644 16.0087C133.222 14.8075 133.011 13.4452 133.011 11.9214C133.011 10.4085 133.222 9.04834 133.644 7.84193C134.065 6.63536 134.66 5.613 135.427 4.77452C136.194 3.93603 137.108 3.2944 138.17 2.84963C139.232 2.40485 140.403 2.18255 141.683 2.18255C142.984 2.18255 144.167 2.40485 145.234 2.84963C146.302 3.2944 147.213 3.93603 147.97 4.77452C148.727 5.613 149.314 6.63536 149.731 7.84193C150.147 9.04834 150.356 10.4085 150.356 11.9214C150.356 13.4452 150.147 14.8075 149.731 16.0087C149.314 17.2102 148.727 18.2304 147.97 19.0685C147.213 19.907 146.302 20.5463 145.234 20.9858C144.167 21.4255 142.984 21.6455 141.683 21.6455C140.403 21.6455 139.232 21.4255 138.17 20.9858ZM116.88 1.62266C115.544 2.14918 114.408 2.89581 113.474 3.86187C112.539 4.82828 111.817 5.99373 111.31 7.35873C110.801 8.72373 110.548 10.2446 110.548 11.9214C110.548 13.5986 110.801 15.1216 111.31 16.492C111.817 17.8623 112.532 19.0302 113.451 19.9966C114.371 20.9627 115.473 21.7092 116.758 22.2357C118.044 22.7622 119.464 23.0256 121.018 23.0256C121.923 23.0256 122.756 22.9719 123.518 22.8645C124.28 22.7572 124.991 22.6038 125.652 22.4046C126.312 22.205 126.932 21.9571 127.511 21.6606C128.09 21.3642 128.649 21.0266 129.188 20.6482V12.9338H123.228V13.7927C123.228 13.8847 123.266 13.9665 123.342 14.0383C123.419 14.1097 123.513 14.1455 123.625 14.1455H127.77V19.9891C127.292 20.265 126.817 20.5129 126.345 20.7327C125.872 20.9524 125.375 21.139 124.851 21.2924C124.328 21.4459 123.762 21.5609 123.152 21.6377C122.542 21.7144 121.867 21.7527 121.125 21.7527C119.794 21.7527 118.577 21.5275 117.475 21.0778C116.373 20.6278 115.427 19.9813 114.64 19.1378C113.852 18.2942 113.24 17.264 112.803 16.0471C112.366 14.8302 112.148 13.4555 112.148 11.9214C112.148 10.4184 112.364 9.06384 112.795 7.8571C113.227 6.65069 113.842 5.62833 114.64 4.78985C115.437 3.9512 116.4 3.30687 117.528 2.85738C118.656 2.40721 119.921 2.18255 121.323 2.18255C122.38 2.18255 123.279 2.27963 124.021 2.47395C124.763 2.66794 125.38 2.88805 125.872 3.13345C126.365 3.37867 126.757 3.61395 127.046 3.83895C127.336 4.06378 127.557 4.20704 127.709 4.26822C127.791 4.30918 127.877 4.32957 127.968 4.32957C128.131 4.32957 128.258 4.25305 128.349 4.09968L128.761 3.42485C128.283 3.00569 127.785 2.63491 127.267 2.313C126.749 1.99075 126.19 1.71974 125.591 1.49996C124.991 1.28019 124.343 1.11401 123.647 1.00143C122.951 0.889009 122.192 0.832886 121.369 0.832886C119.713 0.832886 118.217 1.09614 116.88 1.62266ZM236.793 1.07845C236.651 1.07845 236.539 1.09345 236.458 1.12395C236.376 1.15496 236.295 1.23637 236.214 1.36951L227.74 16.4459C227.659 16.5893 227.585 16.7398 227.518 16.8984C227.453 17.057 227.389 17.2178 227.328 17.3816C227.216 17.0541 227.084 16.7474 226.932 16.4614L218.229 1.36951C218.148 1.23637 218.064 1.15496 217.978 1.12395C217.891 1.09345 217.777 1.07845 217.635 1.07845H216.568V22.7801H217.924V4.28356C217.924 4.00766 217.909 3.72114 217.878 3.42485L226.597 18.6086C226.749 18.8742 226.952 19.0073 227.207 19.0073H227.45C227.714 19.0073 227.917 18.8742 228.06 18.6086L236.549 3.44002C236.519 3.73648 236.503 4.01794 236.503 4.28356V22.7801H237.875V1.07845H236.793ZM210.534 1.07845V11.2004H197.03V1.07845H195.461V22.7801H197.03V12.3819H210.534V22.7801H212.104V1.07845H210.534ZM176.914 1.07845V2.41244H184.535V22.7801H186.089V2.41244H193.664V1.07845H176.914ZM172.969 22.7801H174.539V1.07845H172.969V22.7801ZM155.566 1.07845V22.7801H157.12V12.9645H159.94C160.357 12.9645 160.664 13.0105 160.862 13.1024C161.061 13.1946 161.246 13.3528 161.418 13.5778L168.323 22.3813C168.435 22.5246 168.549 22.6269 168.666 22.688C168.783 22.7497 168.923 22.7801 169.085 22.7801H170.441L163.019 13.394C162.826 13.1384 162.607 12.9338 162.363 12.7806C163.308 12.6782 164.157 12.4611 164.909 12.1286C165.661 11.7964 166.303 11.3718 166.837 10.8556C167.37 10.3393 167.779 9.7385 168.064 9.05373C168.348 8.36845 168.49 7.61154 168.49 6.78333C168.49 4.91255 167.876 3.49395 166.646 2.52738C165.417 1.56131 163.557 1.07845 161.068 1.07845H155.566ZM157.12 2.32058H161.068C162.989 2.32058 164.451 2.69373 165.457 3.44002C166.463 4.18648 166.967 5.33188 166.967 6.8757C166.967 7.63227 166.829 8.31216 166.555 8.91553C166.281 9.51873 165.882 10.0353 165.358 10.4647C164.835 10.894 164.195 11.2237 163.438 11.4539C162.681 11.6838 161.825 11.7991 160.87 11.7991H157.12V2.32058ZM99.4236 1.07845V22.7801H111.205V21.4459H100.978V1.07845H99.4236ZM87.5682 1.07845L78.7434 22.7801H79.9321C80.0746 22.7801 80.1965 22.7391 80.2979 22.6574C80.3995 22.5758 80.4707 22.4784 80.5114 22.366L83.0413 16.0626H93.6342L96.1797 22.366C96.2303 22.4888 96.3015 22.5884 96.3929 22.6651C96.4843 22.7418 96.6011 22.7801 96.7433 22.7801H97.9475L89.1226 1.07845H87.5682ZM87.9187 3.94648C87.9899 3.76227 88.0609 3.56002 88.1319 3.34041C88.2033 3.12064 88.2741 2.88805 88.3455 2.64249C88.4165 2.88805 88.4877 3.12064 88.5589 3.34041C88.6299 3.56002 88.7012 3.75704 88.7723 3.93098L93.177 14.897H83.514L87.9187 3.94648ZM143.84 38.4468C142.545 38.9836 141.432 39.7404 140.502 40.7167C139.572 41.6932 138.851 42.8614 138.338 44.2215C137.825 45.5811 137.568 47.0841 137.568 48.7302C137.568 50.407 137.817 51.9306 138.315 53.3009C138.813 54.6709 139.506 55.8392 140.396 56.8053C141.284 57.7719 142.351 58.5182 143.596 59.0447C144.543 59.4451 145.561 59.6932 146.651 59.7895H148.869C149.324 59.7526 149.755 59.6936 150.165 59.6122C150.912 59.4638 151.598 59.2542 152.223 58.9832C152.848 58.7123 153.424 58.385 153.952 58.0016C154.481 57.6182 154.968 57.1862 155.416 56.7059L154.806 56.0462C154.735 55.9747 154.648 55.939 154.547 55.939C154.486 55.939 154.433 55.9518 154.387 55.9771C154.341 56.0029 154.293 56.0361 154.242 56.0769C153.815 56.4755 153.383 56.8232 152.946 57.12C152.51 57.4166 152.037 57.6669 151.529 57.8717C151.021 58.0759 150.465 58.229 149.86 58.3314C149.256 58.4337 148.567 58.485 147.795 58.485C146.565 58.485 145.425 58.2623 144.374 57.8176C143.322 57.3726 142.41 56.734 141.638 55.9004C140.865 55.0673 140.261 54.0475 139.824 52.8408C139.387 51.634 139.168 50.2638 139.168 48.7302C139.168 47.2377 139.389 45.8905 139.831 44.6893C140.273 43.4878 140.891 42.4655 141.683 41.6221C142.476 40.7781 143.421 40.1288 144.518 39.674C145.616 39.2187 146.819 38.9915 148.13 38.9915C148.842 38.9915 149.476 39.0451 150.036 39.1525C150.594 39.2599 151.087 39.3928 151.514 39.5511C151.941 39.7093 152.309 39.8833 152.619 40.0726C152.929 40.2618 153.193 40.4359 153.412 40.5938C153.63 40.7526 153.81 40.8856 153.952 40.9929C154.095 41.1003 154.211 41.1539 154.303 41.1539C154.476 41.1539 154.603 41.0927 154.684 40.9699L155.156 40.2797C154.679 39.8504 154.192 39.4717 153.693 39.1446C153.195 38.8176 152.665 38.5439 152.101 38.3243C151.537 38.1045 150.93 37.936 150.28 37.8183C149.629 37.7005 148.913 37.642 148.13 37.642C146.565 37.642 145.135 37.9102 143.84 38.4468ZM173.459 37.8871V48.0096H159.956V37.8871H158.386V59.5892H159.956V49.1905H173.459V59.5892H175.029V37.8871H173.459ZM122.161 37.8871V39.2212H129.782V59.5892H131.337V39.2212H138.911V37.8871H122.161ZM114.726 37.8871L105.901 59.5892H107.09C107.232 59.5892 107.354 59.5484 107.456 59.4664C107.557 59.3846 107.628 59.2877 107.669 59.1751L110.199 52.8712H120.792L123.337 59.1751C123.388 59.298 123.459 59.3973 123.551 59.4743C123.642 59.5506 123.759 59.5892 123.901 59.5892H125.105L116.281 37.8871H114.726ZM115.076 40.755C115.148 40.5709 115.219 40.3692 115.29 40.1496C115.361 39.9296 115.432 39.697 115.503 39.4517C115.574 39.697 115.645 39.9296 115.717 40.1496C115.788 40.3692 115.859 40.566 115.93 40.7398L120.335 51.7058H110.672L115.076 40.755ZM107.138 37.8871C106.996 37.8871 106.871 37.928 106.765 38.0099C106.658 38.0915 106.59 38.1886 106.559 38.3012L101.118 56.1384C101.057 56.3428 101.006 56.5601 100.966 56.7903C100.925 57.0198 100.879 57.2578 100.828 57.5032C100.777 57.2474 100.724 57.0075 100.668 56.7824C100.612 56.5572 100.549 56.3428 100.478 56.1384L94.3811 38.3012C94.3301 38.1788 94.2593 38.0787 94.1677 38.0024C94.0764 37.9257 93.9595 37.8871 93.817 37.8871H93.3904C93.2482 37.8871 93.1259 37.928 93.0246 38.0099C92.9229 38.0915 92.8517 38.1886 92.8112 38.3012L86.7147 56.1384C86.6435 56.3428 86.5827 56.5624 86.5319 56.7979C86.481 57.0328 86.4301 57.2784 86.3793 57.5339C86.3286 57.2784 86.2802 57.0328 86.2346 56.7979C86.1886 56.5624 86.1353 56.3428 86.0745 56.1384L80.6333 38.3012C80.5519 38.0251 80.3642 37.8871 80.0696 37.8871H78.7739L85.5715 59.5892H86.9587L93.3445 40.755C93.4257 40.5097 93.4971 40.249 93.558 39.9733C93.619 40.249 93.69 40.5097 93.7714 40.755L100.142 59.5892H101.545L108.327 37.8871H107.138Z" fill="white"/>
    </mask>
    <g mask="url(#mask0)">
        <path fill-rule="evenodd" clip-rule="evenodd" d="M78.1572 60.4243H238.461V0.242981H78.1572V60.4243Z" fill="#676666"/>
    </g>
    <path fill-rule="evenodd" clip-rule="evenodd" d="M33.3956 39.6002L32.979 38.8757H12.5646L22.7733 21.1111C22.641 20.8526 22.3476 20.1432 22.7145 19.5031C22.8447 19.2761 23.0828 19.0192 23.5133 18.8842C23.3677 18.8267 23.2071 18.7895 23.0297 18.7895C22.6564 18.7895 22.1188 18.9506 21.6785 19.7166L11.0971 38.1297C11.008 38.2848 10.5849 39.0939 10.9976 39.8139C11.1842 40.1394 11.5912 40.5272 12.4713 40.5272H33.6374C33.7223 40.5272 33.9746 40.5179 34.2593 40.4308C33.9752 40.3145 33.6669 40.0726 33.3956 39.6002Z" fill="#16759C"/>
    <path fill-rule="evenodd" clip-rule="evenodd" d="M56.5612 38.1298L45.9797 19.7167C45.8908 19.5618 45.405 18.7897 44.5792 18.7897C44.4428 18.7897 44.2844 18.8116 44.1169 18.8764C44.436 18.9682 44.8038 19.1566 45.0269 19.546C45.2116 19.8682 45.3397 20.4094 44.9153 21.1638L55.0937 38.8757H34.7378L34.3214 39.6003C34.2504 39.7233 33.9264 40.2385 33.3798 40.4426C33.5593 40.4952 33.7703 40.5273 34.0207 40.5273H55.1868C55.3647 40.5273 56.2726 40.4907 56.6853 39.7707C56.8719 39.4456 57.0017 38.8968 56.5612 38.1298Z" fill="#A7120E"/>
    <path fill-rule="evenodd" clip-rule="evenodd" d="M44.4664 18.7897H23.3003C22.4202 18.7897 22.013 19.1777 21.8266 19.503C21.4139 20.223 21.837 21.0321 21.9261 21.187L32.5074 39.6003C32.9478 40.3661 33.4854 40.5273 33.8587 40.5273C34.6846 40.5273 35.1703 39.755 35.2592 39.6003L45.8408 21.187C46.2813 20.4205 46.1515 19.8716 45.9649 19.546C45.5522 18.8261 44.6442 18.7897 44.4664 18.7897ZM23.3936 20.4414H44.3733L33.8834 38.6949L23.3936 20.4414Z" fill="#1E6C25"/>
</svg>